Exact Audio Copy V0.99 prebeta 1 from 25. May 2007

EAC 抓取日志文件从1. 四月 2011, 21:25

群星 / 八、九十年代名人集1

使用驱动器  ：PIONEER DVD-RW  DVR-115   Adapter: 0  ID: 0

读取模式     : 保护
使用精确流   : 是
废除音频缓冲 : 是
使用 C2 指针 : 否

读取偏移校正                   : 48
读取 Lead-In 和 Lead-Out       : 否
用静音填充抓取中丢失偏移的采样 : 是
去除首尾静音块                 : 否
已用接口                       : Win NT 及 2000 本地 Win32 接口

所用输出格式 : 内部 WAV 函数
样本格式     : 44.100 Hz;16 Bit;立体声
使用压缩偏移 : 48


被抓轨 CD 的 TOC

     音轨 |   开始   |   长度   | 起始扇区 | 结尾扇区 
    --------------------------------------------------
       1  |  0:00.00 |  3:28.37 |       0  |   15636  
       2  |  3:28.37 |  2:08.50 |   15637  |   25286  
       3  |  5:37.12 |  2:16.00 |   25287  |   35486  
       4  |  7:53.12 |  4:14.00 |   35487  |   54536  
       5  | 12:07.12 |  3:17.13 |   54537  |   69324  
       6  | 15:24.25 |  5:06.37 |   69325  |   92311  
       7  | 20:30.62 |  2:47.50 |   92312  |  104886  
       8  | 23:18.37 |  4:12.63 |  104887  |  123849  
       9  | 27:31.25 |  4:50.25 |  123850  |  145624  
      10  | 32:21.50 |  2:58.00 |  145625  |  158974  
      11  | 35:19.50 |  4:43.25 |  158975  |  180224  
      12  | 40:03.00 |  4:02.00 |  180225  |  198374  
      13  | 44:05.00 |  3:43.50 |  198375  |  215149  
      14  | 47:48.50 |  4:00.25 |  215150  |  233174  
      15  | 51:49.00 |  3:11.50 |  233175  |  247549  


范围状态及错误

已选择范围

     文件名 E:\20世纪中华歌坛名人百集珍藏版-八、九十年代名人集1[lwg188原创]\群星 - 八、九十年代名人集1.wav

     峰值电平 75.6 %
     范围质量 100.0 %
     复制 CRC 1916E0D2
     复制成功

没有错误发生

状态报告结尾
